HIERARCHY
ROOT Hips
{
	OFFSET -0.001795 -0.223333 0.028219
	CHANNELS 6 Xposition Yposition Zposition Zrotation Yrotation Xrotation 
	JOINT LeftUpLeg
	{
		OFFSET 0.069520 -0.091406 -0.006815
		CHANNELS 3 Zrotation Yrotation Xrotation
		JOINT LeftLeg
		{
			OFFSET 0.034277 -0.375199 -0.004496
			CHANNELS 3 Zrotation Yrotation Xrotation
			JOINT LeftFoot
			{
				OFFSET -0.013596 -0.397961 -0.043693
				CHANNELS 3 Zrotation Yrotation Xrotation
				JOINT LeftToe
				{
					OFFSET 0.026358 -0.055791 0.119288
					CHANNELS 3 Zrotation Yrotation Xrotation
					End Site
					{
						OFFSET 0.000000 0.000000 0.000000
					}
				}
			}
		}
	}
	JOINT RightUpLeg
	{
		OFFSET -0.067670 -0.090522 -0.004320
		CHANNELS 3 Zrotation Yrotation Xrotation
		JOINT RightLeg
		{
			OFFSET -0.038290 -0.382569 -0.008850
			CHANNELS 3 Zrotation Yrotation Xrotation
			JOINT RightFoot
			{
				OFFSET 0.015774 -0.398415 -0.042312
				CHANNELS 3 Zrotation Yrotation Xrotation
				JOINT RightToe
				{
					OFFSET -0.025372 -0.048144 0.123348
					CHANNELS 3 Zrotation Yrotation Xrotation
					End Site
					{
						OFFSET 0.000000 0.000000 0.000000
					}
				}
			}
		}
	}
	JOINT Spine
	{
		OFFSET -0.002533 0.108963 -0.026696
		CHANNELS 3 Zrotation Yrotation Xrotation
		JOINT Spine1
		{
			OFFSET 0.005487 0.135180 0.001092
			CHANNELS 3 Zrotation Yrotation Xrotation
			JOINT Spine2
			{
				OFFSET 0.001457 0.052922 0.025425
				CHANNELS 3 Zrotation Yrotation Xrotation
				JOINT Neck
				{
					OFFSET -0.002778 0.213870 -0.042857
					CHANNELS 3 Zrotation Yrotation Xrotation
					JOINT Head
					{
						OFFSET 0.005152 0.064970 0.051349
						CHANNELS 3 Zrotation Yrotation Xrotation
						End Site
						{
							OFFSET 0.000000 0.000000 0.000000
						}
					}
				}
				JOINT LeftShoulder
				{
					OFFSET 0.078845 0.121749 -0.034090
					CHANNELS 3 Zrotation Yrotation Xrotation
					JOINT LeftArm
					{
						OFFSET 0.090977 0.030469 -0.008868
						CHANNELS 3 Zrotation Yrotation Xrotation
						JOINT LeftForeArm
						{
							OFFSET 0.259612 -0.012772 -0.027456
							CHANNELS 3 Zrotation Yrotation Xrotation
							JOINT LeftHand
							{
								OFFSET 0.249234 0.008986 -0.001171
								CHANNELS 3 Zrotation Yrotation Xrotation
								End Site
								{
									OFFSET 0.000000 0.000000 0.000000
								}
							}
						}
					}
				}
				JOINT RightShoulder
				{
					OFFSET -0.081759 0.118833 -0.038615
					CHANNELS 3 Zrotation Yrotation Xrotation
					JOINT RightArm
					{
						OFFSET -0.096012 0.032551 -0.009143
						CHANNELS 3 Zrotation Yrotation Xrotation
						JOINT RightForeArm
						{
							OFFSET -0.253742 -0.013329 -0.021401
							CHANNELS 3 Zrotation Yrotation Xrotation
							JOINT RightHand
							{
								OFFSET -0.255298 0.007772 -0.005559
								CHANNELS 3 Zrotation Yrotation Xrotation
								End Site
								{
									OFFSET 0.000000 0.000000 0.000000
								}
							}
						}
					}
				}
			}
		}
	}
}
MOTION
Frames: 16
Frame Time: 0.050000
0.026302 0.948335 -0.019668 0.532408 -28.291993 3.322745 9.260444 0.632912 -6.692564 -4.171765 0.878693 3.434478 3.702101 7.490346 16.328181 0.000000 0.000000 0.000000 -5.759467 0.832433 -6.602935 3.616358 0.091189 6.733311 -9.119684 -23.978652 22.992862 0.000000 0.000000 0.000000 -4.993112 0.209914 0.817750 7.650477 -1.690421 -22.024276 -1.856914 -0.077283 26.589121 -0.566347 -0.755395 -30.457982 0.000000 0.000000 0.000000 -26.661168 -2.945760 6.893987 -50.017408 -27.017416 1.490623 0.371419 -42.181108 4.188985 0.000000 0.000000 0.000000 15.783711 18.461968 3.818426 52.267856 19.050157 1.395782 -9.264506 34.976940 -2.884061 0.000000 0.000000 0.000000 
0.026133 0.946426 -0.018585 0.669070 -28.090932 3.817463 9.266726 0.646030 -7.815433 -4.861646 1.064609 4.133333 4.515733 8.793644 16.231139 0.000000 0.000000 0.000000 -5.912801 0.892339 -7.401383 3.643156 0.113562 7.274552 -9.460563 -24.371689 22.578476 0.000000 0.000000 0.000000 -5.398548 0.244905 1.572191 8.129481 -1.851893 -21.407825 -1.453367 -0.467868 27.051518 -1.053911 -0.450571 -32.225453 0.000000 0.000000 0.000000 -28.684054 -2.013034 6.755247 -51.783407 -23.153405 -0.323323 -4.992570 -36.732231 5.142908 0.000000 0.000000 0.000000 16.868505 17.610681 3.191325 57.253120 14.096253 -0.787625 -5.440046 32.442532 -1.465671 0.000000 0.000000 0.000000 
0.026444 0.946143 -0.017495 0.722197 -28.299279 4.412220 9.332257 0.681532 -8.627480 -5.164784 1.163150 4.536514 4.645832 8.956378 16.214387 0.000000 0.000000 0.000000 -5.783749 0.938969 -8.042619 3.178323 0.159241 7.255051 -9.379529 -24.336165 22.455220 0.000000 0.000000 0.000000 -5.131883 0.239667 2.247396 7.647082 -1.726615 -21.546562 -1.100229 -1.018593 27.408951 -1.300419 -0.394081 -33.347161 0.000000 0.000000 0.000000 -29.552176 -1.504894 6.830179 -52.187328 -20.437896 -1.654343 -6.976749 -34.637358 5.346609 0.000000 0.000000 0.000000 17.506601 17.103961 2.611446 59.126482 9.565351 -3.005514 -3.663014 30.595595 -0.913850 0.000000 0.000000 0.000000 
0.026952 0.946310 -0.016680 0.228451 -28.913414 5.117407 9.309920 0.703050 -8.914793 -4.475907 1.008400 4.438525 5.056431 9.485186 16.231869 0.000000 0.000000 0.000000 -5.553328 0.987113 -8.659035 3.402412 0.150872 7.276392 -8.974829 -23.959089 22.478570 0.000000 0.000000 0.000000 -4.425444 0.194966 2.493752 7.617762 -1.753067 -21.272768 -0.946373 -0.683757 27.580974 -1.405368 -0.331902 -33.621259 0.000000 0.000000 0.000000 -29.355353 -1.317386 6.661954 -52.290903 -18.696995 -2.374965 -8.763999 -33.650547 5.652008 0.000000 0.000000 0.000000 17.529114 16.366390 2.217232 59.617450 6.572130 -4.571942 -1.518341 29.509982 -0.312138 0.000000 0.000000 0.000000 
0.027406 0.946722 -0.015671 0.060560 -28.976065 5.565121 9.206554 0.684680 -9.114269 -4.140870 0.917141 4.184865 5.146128 9.597596 16.316498 0.000000 0.000000 0.000000 -5.293908 1.005942 -8.968029 3.098647 0.172820 7.163791 -8.872046 -23.894708 22.671820 0.000000 0.000000 0.000000 -4.082737 0.174453 3.146355 7.829871 -1.827407 -20.979243 -1.058718 -0.925815 27.410433 -1.790958 -0.191210 -33.213216 0.000000 0.000000 0.000000 -29.358213 -0.280324 5.979961 -51.988247 -17.587408 -2.860409 -9.228938 -34.052722 5.928476 0.000000 0.000000 0.000000 16.835787 15.572183 1.874599 59.559015 4.913961 -5.469455 0.795063 29.760777 0.222227 0.000000 0.000000 0.000000 
0.027682 0.947117 -0.014520 -0.075165 -28.874084 5.842139 9.069459 0.651564 -9.119311 -3.771310 0.814986 3.848842 5.147674 9.595855 16.356046 0.000000 0.000000 0.000000 -5.159974 1.013420 -9.102637 3.009079 0.176856 7.110542 -8.871006 -23.926357 22.923957 0.000000 0.000000 0.000000 -3.893408 0.161858 3.473189 8.296810 -2.008797 -20.246726 -1.274854 -1.046476 26.850704 -2.266147 0.049136 -32.640600 0.000000 0.000000 0.000000 -28.820633 0.512262 5.259270 -52.223990 -16.796580 -3.031404 -9.103951 -34.237463 5.968645 0.000000 0.000000 0.000000 16.345562 14.602814 1.486861 59.108483 3.436055 -6.140252 2.510600 30.320328 0.617820 0.000000 0.000000 0.000000 
0.027927 0.947636 -0.013037 -0.126865 -28.979354 5.746504 9.042796 0.629553 -8.531998 -3.768499 0.787724 3.224799 5.186937 9.649151 16.464522 0.000000 0.000000 0.000000 -4.999740 0.965902 -8.609796 2.682238 0.175178 6.580806 -8.706397 -23.720371 22.999979 0.000000 0.000000 0.000000 -3.778610 0.156508 4.442764 8.382303 -2.043253 -20.164700 -1.046459 -1.293450 26.710235 -2.587245 0.160964 -32.110182 0.000000 0.000000 0.000000 -28.922418 1.708006 4.472247 -51.398381 -16.199202 -3.318361 -10.159031 -34.756035 6.458076 0.000000 0.000000 0.000000 15.916570 13.789684 1.122590 58.148280 1.879341 -6.782467 4.481042 31.344296 1.084904 0.000000 0.000000 0.000000 
0.028171 0.948214 -0.011524 -0.334453 -29.082856 5.769048 9.172448 0.627975 -7.657599 -3.786568 0.745726 2.025227 5.216993 9.685205 16.626322 0.000000 0.000000 0.000000 -4.751459 0.917710 -8.141284 2.461670 0.161724 6.004264 -8.517511 -23.501174 23.147622 0.000000 0.000000 0.000000 -3.688310 0.153837 5.086885 8.843149 -2.153593 -20.040850 -1.128732 -1.190001 26.383689 -3.141659 0.470009 -31.963854 0.000000 0.000000 0.000000 -28.676108 2.390819 3.877262 -51.455194 -15.770073 -3.407250 -10.097792 -35.216629 6.580316 0.000000 0.000000 0.000000 15.564907 13.091507 0.891109 57.679631 0.693806 -7.298054 5.867815 33.105198 1.475579 0.000000 0.000000 0.000000 
0.028475 0.949409 -0.010003 -0.371073 -29.440737 5.889696 9.177958 0.626630 -7.207380 -3.911501 0.750989 1.302037 5.348574 9.833327 17.055779 0.000000 0.000000 0.000000 -4.724125 0.912199 -8.047219 2.284696 0.159717 5.654062 -8.179779 -23.166256 23.404594 0.000000 0.000000 0.000000 -3.482009 0.139174 5.366429 8.990115 -2.138998 -20.369809 -1.345135 -1.121422 26.360659 -3.337506 0.538703 -31.693027 0.000000 0.000000 0.000000 -28.059630 3.171442 3.282984 -51.689021 -15.197873 -3.547753 -10.429584 -36.069456 6.975769 0.000000 0.000000 0.000000 15.154262 12.397332 0.604275 56.854187 0.263751 -7.393573 7.079868 35.170038 1.824453 0.000000 0.000000 0.000000 
0.028862 0.950517 -0.008560 -0.375570 -29.679251 5.970049 9.195003 0.629690 -6.990842 -4.093855 0.779760 0.975386 5.418337 9.905487 17.396838 0.000000 0.000000 0.000000 -4.712250 0.904009 -7.926565 2.099403 0.157770 5.328541 -7.919929 -22.912961 23.675382 0.000000 0.000000 0.000000 -3.298945 0.126855 5.712073 8.693028 -2.025322 -20.786560 -1.083686 -1.004638 26.323352 -3.504835 0.590455 -30.310803 0.000000 0.000000 0.000000 -27.205194 2.933814 3.344816 -52.381495 -15.227874 -3.378672 -9.739846 -37.762897 7.212247 0.000000 0.000000 0.000000 14.390376 12.096694 0.620192 56.540424 0.398548 -7.369824 8.014654 38.131157 2.172137 0.000000 0.000000 0.000000 
0.029403 0.951669 -0.007066 -0.348034 -29.872440 5.883337 9.111033 0.614103 -6.580070 -4.167609 0.784198 0.574129 5.462973 9.948640 17.723450 0.000000 0.000000 0.000000 -4.773829 0.873105 -7.497181 1.982310 0.136314 4.757696 -7.670974 -22.649490 23.960783 0.000000 0.000000 0.000000 -3.375684 0.136387 5.838904 8.869152 -2.055767 -20.822925 -1.242860 -1.123375 26.332507 -3.663178 0.629609 -29.730927 0.000000 0.000000 0.000000 -26.486925 3.022766 3.240481 -52.696681 -15.847762 -2.994726 -9.761321 -38.797105 7.540344 0.000000 0.000000 0.000000 13.579564 12.149353 0.775849 56.185225 1.675128 -6.815172 8.889432 40.802857 2.500298 0.000000 0.000000 0.000000 
0.030104 0.952694 -0.005586 -0.261451 -30.213714 5.907188 8.892466 0.589781 -6.526215 -4.137751 0.782783 0.569216 5.615285 10.125383 18.022643 0.000000 0.000000 0.000000 -4.753075 0.863079 -7.351335 1.574508 0.146518 4.371261 -7.360717 -22.344973 24.155933 0.000000 0.000000 0.000000 -3.570624 0.162015 5.988643 8.838567 -1.958305 -21.456588 -1.054615 -1.299186 26.595370 -3.557100 0.490963 -28.979889 0.000000 0.000000 0.000000 -26.202854 2.616481 3.618026 -52.645978 -16.846862 -2.554307 -9.136434 -40.335861 7.733894 0.000000 0.000000 0.000000 12.481653 12.263682 0.989705 56.192853 3.259089 -6.276490 9.764080 44.166442 2.866725 0.000000 0.000000 0.000000 
0.031159 0.953964 -0.004270 -0.250085 -30.482855 5.839227 8.545087 0.545079 -6.384717 -3.779698 0.717004 0.590248 5.754737 10.277996 18.327272 0.000000 0.000000 0.000000 -4.802569 0.850523 -7.129078 1.388621 0.161777 4.383382 -6.724571 -21.574419 23.620595 0.000000 0.000000 0.000000 -3.699816 0.174425 5.872269 8.941785 -1.947013 -21.652125 -1.214625 -1.581839 26.573295 -3.593760 0.433750 -28.763870 0.000000 0.000000 0.000000 -25.007867 1.895586 4.049406 -53.320723 -17.967015 -1.842383 -8.778002 -42.671229 8.287781 0.000000 0.000000 0.000000 11.523566 12.718068 1.302870 56.483937 5.106208 -5.610133 10.366139 47.649802 3.142671 0.000000 0.000000 0.000000 
0.032737 0.955082 -0.003549 -0.293011 -30.688617 5.973372 8.268446 0.512169 -6.642773 -3.461181 0.664479 0.864741 5.883430 10.414063 18.572220 0.000000 0.000000 0.000000 -4.989267 0.873680 -7.259562 1.303823 0.172344 4.438057 -5.860261 -20.626803 23.633693 0.000000 0.000000 0.000000 -3.882441 0.186905 5.311653 8.695875 -1.931761 -21.392475 -1.212542 -1.922574 26.283637 -3.867238 0.507946 -28.160846 0.000000 0.000000 0.000000 -23.110397 0.470533 4.728190 -54.429701 -20.161716 -0.344951 -6.637289 -45.660068 8.224914 0.000000 0.000000 0.000000 10.670957 13.759714 1.834905 56.627024 7.251952 -4.723516 10.070454 51.743244 3.043635 0.000000 0.000000 0.000000 
0.035046 0.956189 -0.004056 -0.391973 -31.071415 5.976847 8.013974 0.491196 -6.886291 -3.112042 0.612909 1.320673 6.092520 10.650469 18.831934 0.000000 0.000000 0.000000 -5.042471 0.913503 -7.715342 1.144108 0.225026 5.073513 -5.177970 -19.941195 23.802732 0.000000 0.000000 0.000000 -4.217521 0.223804 5.298486 8.731541 -1.933293 -21.408138 -0.988129 -1.833967 26.196228 -4.099498 0.615692 -27.954219 0.000000 0.000000 0.000000 -21.151992 -1.368383 5.476474 -54.947698 -23.546285 1.754885 -3.101859 -49.793885 7.641101 0.000000 0.000000 0.000000 9.530387 15.286468 2.701930 56.221411 10.494271 -3.364263 8.642591 55.165362 2.445165 0.000000 0.000000 0.000000 
0.038237 0.956890 -0.006083 -0.748183 -31.135983 6.013336 8.206981 0.532014 -7.141317 -2.989846 0.607164 1.934522 5.863769 10.311784 18.290127 0.000000 0.000000 0.000000 -4.886413 0.960720 -8.396543 0.926202 0.307260 6.011402 -4.421507 -19.275718 24.566108 0.000000 0.000000 0.000000 -4.360756 0.237313 5.272264 8.851303 -2.022996 -20.938169 -0.838910 -1.482838 25.908765 -4.034629 0.641752 -27.490960 0.000000 0.000000 0.000000 -19.085976 -3.681093 6.258123 -54.952953 -29.768110 5.414451 3.136545 -50.736655 4.708417 0.000000 0.000000 0.000000 8.821364 17.248903 3.699950 54.735913 15.079355 -1.257201 2.856254 57.786575 -0.463372 0.000000 0.000000 0.000000 
